<svg width="24" height="24" viewBox="0 0 24 24" fill="none" xmlns="http://www.w3.org/2000/svg">
<path fill-rule="evenodd" clip-rule="evenodd" d="M5.37421 11.3829H10.3176V3.06797L5.37421 11.3829ZM3.86252 11.6654C3.63684 12.045 3.91591 12.5217 4.36381 12.5217H10.8979C11.2184 12.5217 11.4782 12.2668 11.4782 11.9523V0.961693C11.4782 0.380457 10.6951 0.172713 10.3966 0.674773L3.86252 11.6654Z" fill="black"/>
<path fill-rule="evenodd" clip-rule="evenodd" d="M18.6258 12.6171H13.6824V20.932L18.6258 12.6171ZM20.1374 12.3346C20.3631 11.955 20.0841 11.4783 19.6362 11.4783H13.1021C12.7816 11.4783 12.5217 11.7332 12.5217 12.0477L12.5217 23.0383C12.5217 23.6195 13.3049 23.8273 13.6034 23.3252L20.1374 12.3346Z" fill="black"/>
</svg>
